Coordinates
version=1
nRows=6
nColumns=36
inDegrees=yes

Units are S.I. units (second, meters, Newtons, ...)
If the header above contains a line with 'inDegrees', this indicates whether rotational values are in degrees (yes) or radians (no).

endheader
time	pelvis_tilt	pelvis_list	pelvis_rotation	pelvis_tx	pelvis_ty	pelvis_tz	hip_flexion_r	hip_adduction_r	hip_rotation_r	knee_angle_r	knee_angle_r_beta	ankle_angle_r	subtalar_angle_r	mtp_angle_r	hip_flexion_l	hip_adduction_l	hip_rotation_l	knee_angle_l	knee_angle_l_beta	ankle_angle_l	subtalar_angle_l	mtp_angle_l	lumbar_extension	lumbar_bending	lumbar_rotation	arm_flex_r	arm_add_r	arm_rot_r	elbow_flex_r	pro_sup_r	arm_flex_l	arm_add_l	arm_rot_l	elbow_flex_l	pro_sup_l
      0.64800000	     -0.05205498	      1.32232507	     14.45536843	      0.14734552	      0.98393537	      0.18497259	     33.74541698	    -11.10487033	     -7.23877070	    145.49143562	      2.53930459	     -7.95143629	     -7.68643012	    -17.53239512	     -0.98809745	      4.64420900	      3.76172984	     39.40577061	      0.68776044	     26.32089314	      1.02767597	    -11.22848949	    -24.91398498	      2.63724224	    -17.07399643	    -24.37359443	    -17.58571891	      4.72508605	     43.14323537	     90.00021046	     23.41008884	    -20.18773834	     13.12123306	     88.88062318	     90.00021046
      0.65200000	      0.33081985	     -0.39697410	     13.32459404	      0.18585637	      0.98376881	      0.18693307	     37.18813031	     -8.74784131	     -6.97856708	    143.92208491	      2.51191425	     -6.82064567	     -7.19704171	    -35.75266356	     -4.26737892	      1.84315090	      2.44072930	     37.37209119	      0.65226604	     25.82619473	      2.65310356	    -13.69347125	    -24.71795344	      4.22658291	    -15.42067697	    -27.89528968	    -18.68006467	      4.83134185	     44.34858192	     90.00021046	     26.53496153	    -18.92573457	     12.72415245	     90.48213664	     90.00021046
      0.65600000	     -0.56727852	     -2.85334912	     13.99610285	      0.22807537	      0.98160054	      0.18628311	     40.85600569	     -7.32560311	     -9.03643211	    141.71657882	      2.47342091	     -5.52664901	     -7.35495465	    -33.53432132	     -6.13653115	     -1.57108042	      2.55469319	     35.43411305	      0.61844194	     24.96479037	      4.83761154	    -16.17178085	    -22.25574834	      6.88771618	    -15.87079838	    -31.57746141	    -19.62019470	      4.71669328	     44.70071478	     90.00021046	     27.77064717	    -17.53146499	     11.23973298	     92.42077458	     90.00021046
      0.66000000	     -1.19325555	     -4.70964965	     13.09299032	      0.26872339	      0.97983851	      0.18757552	     44.88588302	     -5.41368574	     -9.59757695	    139.65838943	      2.43749872	     -4.63913349	     -7.82105727	    -29.32363875	     -8.76814378	     -4.05564721	      1.39413706	     32.84528050	      0.57325829	     22.41157645	      6.32811628	    -22.17717073	    -20.65318308	      8.55709408	    -15.12640384	    -35.39482243	    -20.95470995	      4.88354630	     46.06022314	     90.00021046	     29.49785491	    -16.35864293	      9.94068121	     94.72445263	     90.00021046
      0.66400000	     -2.40629996	     -6.74704619	     12.44140803	      0.31033326	      0.97734069	      0.18822691	     49.15607611	     -4.02739282	    -10.72520828	    137.36039165	      2.39739110	     -3.77372194	     -8.56829546	    -17.85868643	    -10.90748804	     -6.50568290	      0.43251453	     29.89175582	      0.52170956	     19.31169871	      7.41380020	    -28.27065663	    -18.20967025	     10.49702262	    -14.81571690	    -39.47444058	    -22.06744390	      4.35538460	     47.39385942	     90.00021046	     30.64965641	    -15.01309019	      8.46757452	     97.14413101	     90.00021046
      0.66800000	     -3.53520348	     -8.48539711	     11.35756991	      0.35222866	      0.97473065	      0.19007537	     53.38027275	     -1.97466433	    -11.24810891	    134.90262381	      2.35449496	     -3.56153699	     -9.16682244	    -18.62089025	    -13.55118849	     -8.48463625	     -0.97094059	     26.30128101	      0.45904395	     15.34215829	      8.45769312	    -35.20556824	    -15.98950049	     12.02482987	    -14.21280537	    -43.75634438	    -22.86733867	      3.20073694	     48.97396797	     90.00021046	     31.88533805	    -14.02503134	      7.36476217	     99.72131093	     90.00021046
